<svg id="Layer_1" data-name="Layer 1" xmlns="http://www.w3.org/2000/svg" viewBox="0 0 360 359.99"><defs><style>.cls-1{fill:#09eaf2;}.cls-1,.cls-2,.cls-3,.cls-4{fill-rule:evenodd;}.cls-2{fill:#1778ff;}.cls-3{fill:#ffb617;}.cls-4{fill:#ff346c;}</style></defs><path class="cls-1" d="M325.4,360H226.67a34.7,34.7,0,0,1-34.6-34.6v-56.6a34.7,34.7,0,0,1,34.6-34.6H325.4A34.69,34.69,0,0,1,360,268.79v56.6A34.69,34.69,0,0,1,325.4,360Z" transform="translate(0 0)"/><path class="cls-2" d="M325.4,210H226.67a34.7,34.7,0,0,1-34.6-34.6V34.6A34.7,34.7,0,0,1,226.67,0H325.4A34.71,34.71,0,0,1,360,34.6V175.44A34.71,34.71,0,0,1,325.4,210Z" transform="translate(0 0)"/><path class="cls-3" d="M133.32,0H34.6A34.7,34.7,0,0,0,0,34.6V91.21a34.7,34.7,0,0,0,34.6,34.6h98.72a34.7,34.7,0,0,0,34.6-34.6V34.6A34.7,34.7,0,0,0,133.32,0Z" transform="translate(0 0)"/><path class="cls-4" d="M133.33,150H34.6A34.69,34.69,0,0,0,0,184.56V325.4A34.69,34.69,0,0,0,34.6,360h98.73a34.7,34.7,0,0,0,34.6-34.59V184.56a34.7,34.7,0,0,0-34.6-34.6Z" transform="translate(0 0)"/></svg>