<?xml version="1.0" encoding="UTF-8"?>
<!DOCTYPE svg PUBLIC "-//W3C//DTD SVG 1.1//EN" "http://www.w3.org/Graphics/SVG/1.1/DTD/svg11.dtd">
<!-- Creator: CorelDRAW 2019 (64-Bit) -->
<svg xmlns="http://www.w3.org/2000/svg" xml:space="preserve" width="1.3546mm" height="1.3546mm" version="1.1" style="shape-rendering:geometricPrecision; text-rendering:geometricPrecision; image-rendering:optimizeQuality; fill-rule:evenodd; clip-rule:evenodd"
viewBox="0 0 135.46 135.46"
 xmlns:xlink="http://www.w3.org/1999/xlink"
 xmlns:xodm="http://www.corel.com/coreldraw/odm/2003">
 <defs>
  <style type="text/css">
   <![CDATA[
    .fil4 {fill:#09EAF2}
    .fil6 {fill:#133CF2}
    .fil5 {fill:#1778FF}
    .fil7 {fill:#2E13C4}
    .fil3 {fill:#8A179E}
    .fil2 {fill:#FF346C}
    .fil1 {fill:#FFB617}
    .fil0 {fill:white;fill-rule:nonzero}
   ]]>
  </style>
 </defs>
 <g id="Layer_x0020_1">
  <metadata id="CorelCorpID_0Corel-Layer"/>
  <g id="_2508442788976">
   <path class="fil0" d="M103.13 135.46l-70.8 0c-17.78,0 -32.33,-14.55 -32.33,-32.33l0 -70.8c0,-17.78 14.55,-32.33 32.33,-32.33l70.8 0c17.78,0 32.33,14.55 32.33,32.33l0 70.8c0,17.78 -14.55,32.33 -32.33,32.33z"/>
   <path class="fil1" d="M49.12 85.8l-27.76 -2.45c0.41,0.84 1.1,1.4 2.01,1.63 6.52,1.64 12.35,5.02 16.97,9.62l8.78 -8.8z"/>
   <polygon class="fil2" points="21.36,83.35 49.12,85.8 61.76,73.12 "/>
   <path class="fil3" d="M21.36 83.35l40.4 -10.23c-0.56,-0.55 -1.32,-0.89 -2.17,-0.89l-31.85 0.04c-1.63,0.01 -3.03,0.91 -3.7,2.4l-2.72 6.09c-0.38,0.85 -0.37,1.74 0.04,2.59z"/>
   <path class="fil4" d="M49.12 85.8l2.52 27.75c-0.84,-0.41 -1.4,-1.1 -1.63,-2.01 -1.66,-6.51 -5.06,-12.34 -9.67,-16.94l8.78 -8.8z"/>
   <polygon class="fil5" points="51.64,113.55 49.12,85.8 61.76,73.12 "/>
   <path class="fil6" d="M51.64 113.55l10.12 -40.43c0.55,0.56 0.9,1.32 0.9,2.17l0.04 31.85c0,1.63 -0.9,3.03 -2.39,3.7l-6.08 2.74c-0.85,0.39 -1.74,0.38 -2.59,-0.03z"/>
   <path class="fil7" d="M21.95 59.64c3.36,-19.09 18.39,-34.17 37.48,-37.58 0.81,-0.15 1.57,0.05 2.2,0.58 0.63,0.53 0.96,1.23 0.96,2.06l0.02 14.03c0,1.78 -1.11,3.29 -2.81,3.82 -8.28,2.58 -14.8,9.12 -17.35,17.4 -0.53,1.71 -2.04,2.82 -3.82,2.82l-14.03 0.02c-0.82,0.01 -1.53,-0.32 -2.06,-0.95 -0.53,-0.63 -0.73,-1.39 -0.59,-2.2z"/>
   <path class="fil7" d="M113.34 75.81c-3.36,19.1 -18.4,34.18 -37.48,37.59 -0.81,0.15 -1.57,-0.05 -2.2,-0.58 -0.63,-0.53 -0.96,-1.24 -0.96,-2.06l-0.02 -14.03c0,-1.78 1.11,-3.29 2.81,-3.82 8.27,-2.58 14.8,-9.12 17.35,-17.4 0.53,-1.71 2.04,-2.82 3.82,-2.83l14.03 -0.02c0.82,0 1.53,0.33 2.06,0.96 0.53,0.63 0.73,1.39 0.59,2.19z"/>
   <path class="fil7" d="M75.73 22.03c19.1,3.36 34.18,18.4 37.59,37.49 0.14,0.81 -0.06,1.56 -0.59,2.19 -0.53,0.63 -1.23,0.96 -2.06,0.97l-14.02 0.01c-1.79,0.01 -3.3,-1.11 -3.83,-2.81 -2.58,-8.27 -9.12,-14.8 -17.4,-17.35 -1.7,-0.52 -2.82,-2.03 -2.82,-3.82l-0.02 -14.03c0,-0.82 0.33,-1.53 0.96,-2.06 0.63,-0.52 1.38,-0.73 2.19,-0.59z"/>
  </g>
 </g>
</svg>
