<?xml version="1.0" encoding="UTF-8"?>
<!DOCTYPE svg PUBLIC "-//W3C//DTD SVG 1.1//EN" "http://www.w3.org/Graphics/SVG/1.1/DTD/svg11.dtd">
<!-- Creator: CorelDRAW 2019 (64-Bit) -->
<svg xmlns="http://www.w3.org/2000/svg" xml:space="preserve" width="99.1239mm" height="27.0626mm" version="1.1" style="shape-rendering:geometricPrecision; text-rendering:geometricPrecision; image-rendering:optimizeQuality; fill-rule:evenodd; clip-rule:evenodd"
viewBox="0 0 9912.38 2706.26"
 xmlns:xlink="http://www.w3.org/1999/xlink"
 xmlns:xodm="http://www.corel.com/coreldraw/odm/2003">
 <defs>
  <style type="text/css">
   <![CDATA[
    .fil4 {fill:#09EAF2}
    .fil6 {fill:#133CF2}
    .fil5 {fill:#1778FF}
    .fil0 {fill:#2E13C4}
    .fil3 {fill:#8A179E}
    .fil2 {fill:#FF346C}
    .fil1 {fill:#FFB617}
   ]]>
  </style>
 </defs>
 <g id="Layer_x0020_1">
  <metadata id="CorelCorpID_0Corel-Layer"/>
  <path class="fil0" d="M4231.28 644.37c510.01,0 923.43,413.42 923.43,923.39 0,510.05 -413.42,923.47 -923.43,923.47 -510,0 -923.42,-413.42 -923.42,-923.47 0,-509.97 413.42,-923.39 923.42,-923.39zm0 398.71c289.8,0 524.72,234.92 524.72,524.68 0,289.81 -234.92,524.72 -524.72,524.72 -289.8,0 -524.71,-234.91 -524.71,-524.72 0,-289.76 234.91,-524.68 524.71,-524.68z"/>
  <path class="fil0" d="M7943.47 693.13l0 303.25c0,25.43 -20.75,46.17 -46.18,46.17l-190.43 0c-17.18,0 -31.96,-8.67 -40.32,-23.67l-207.79 -371.93 438.54 0c25.43,0 46.18,20.74 46.18,46.18zm-545.33 1184.72c0,54.58 19.65,101 58.85,139 39.19,37.99 86.11,57.04 140.75,57.04l299.55 0c25.43,0 46.18,20.74 46.18,46.18l0 321.06c0,25.44 -20.75,46.18 -46.18,46.18l-299.55 0c-92.63,0 -179.95,-17.22 -261.97,-51.68 -81.95,-34.43 -153.21,-81.99 -213.85,-142.56 -60.57,-60.61 -108.73,-131.27 -144.32,-212.05 -35.63,-80.79 -53.48,-167.5 -53.48,-260.21l0 -778.26 -210.43 0c-25.43,0 -46.17,-20.74 -46.17,-46.17l0 -303.25c0,-25.44 20.74,-46.18 46.17,-46.18l210.43 0 0 -385.73c0,-25.43 20.77,-46.18 46.17,-46.18l381.71 0c25.4,0 46.14,20.75 46.14,46.18l0 1616.63z"/>
  <path class="fil0" d="M8988.96 644.37c510,0 923.42,413.42 923.42,923.39 0,510.05 -413.42,923.47 -923.42,923.47 -510.01,0 -923.43,-413.42 -923.43,-923.47 0,-509.97 413.42,-923.39 923.43,-923.39zm0 398.71c289.81,0 524.68,234.92 524.68,524.68 0,289.81 -234.87,524.72 -524.68,524.72 -289.81,0 -524.72,-234.91 -524.72,-524.72 0,-289.76 234.91,-524.68 524.72,-524.68z"/>
  <path class="fil0" d="M6474.26 693.13l0 303.25c0,25.43 -20.74,46.17 -46.18,46.17l-190.42 0c-17.18,0 -31.93,-8.67 -40.33,-23.67l-207.78 -371.93 438.53 0c25.44,0 46.18,20.74 46.18,46.18zm-545.29 1184.72c0,54.58 19.62,101 58.81,139 39.2,37.99 86.15,57.04 140.76,57.04l299.54 0c25.44,0 46.18,20.74 46.18,46.18l0 321.06c0,25.44 -20.74,46.18 -46.18,46.18l-299.54 0c-92.64,0 -179.95,-17.22 -261.97,-51.68 -81.95,-34.43 -153.21,-81.99 -213.82,-142.56 -60.61,-60.61 -108.73,-131.27 -144.36,-212.05 -35.63,-80.79 -53.44,-167.5 -53.44,-260.21l0 -778.26 -210.47 0c-25.4,0 -46.18,-20.74 -46.18,-46.17l0 -303.25c0,-25.44 20.78,-46.18 46.18,-46.18l210.47 0 0 -385.73c0,-25.43 20.74,-46.18 46.14,-46.18l381.71 0c25.43,0 46.17,20.75 46.17,46.18l0 1616.63z"/>
  <path class="fil1" d="M827.07 1879.19l-817.75 -73.38c11.99,24.88 32.35,41.46 59.14,48.19 192.11,48.51 363.83,148.38 499.6,284.2l259.01 -259.01z"/>
  <polygon class="fil2" points="9.32,1805.81 827.07,1879.19 1200.08,1506.2 "/>
  <path class="fil3" d="M9.32 1805.81l1190.76 -299.61c-16.35,-16.33 -38.9,-26.49 -63.76,-26.49l-938.54 0c-48.14,0.03 -89.26,26.63 -109.01,70.48l-80.52 179.32c-11.33,25.19 -11,51.4 1.07,76.3z"/>
  <path class="fil4" d="M827.07 1879.19l73.39 817.74c-24.87,-11.96 -41.46,-32.35 -48.2,-59.12 -48.51,-192.13 -148.39,-363.82 -284.2,-499.61l259.01 -259.01z"/>
  <polygon class="fil5" points="900.46,2696.93 827.07,1879.19 1200.08,1506.2 "/>
  <path class="fil6" d="M900.46 2696.93l299.62 -1190.73c16.33,16.33 26.47,38.88 26.47,63.71l0 938.57c-0.03,48.15 -26.61,89.25 -70.51,109.01l-179.29 80.53c-25.18,11.33 -51.4,10.98 -76.29,-1.09z"/>
  <path class="fil0" d="M27.63 1107.36c99.67,-562.65 543.4,-1006.37 1106,-1106.03 23.88,-4.23 46.09,1.69 64.65,17.25 18.57,15.59 28.29,36.44 28.29,60.68l0 413.45c0,52.53 -32.83,97.09 -83,112.61 -243.92,75.53 -436.46,268.04 -511.99,511.99 -15.55,50.13 -60.08,83.01 -112.57,83.01l-413.41 0c-24.25,0 -45.1,-9.74 -60.67,-28.33 -15.56,-18.56 -21.53,-40.78 -17.3,-64.63z"/>
  <path class="fil0" d="M2719.88 1587.59c-99.69,562.64 -543.38,1006.37 -1106.01,1106.02 -23.88,4.24 -46.09,-1.69 -64.65,-17.25 -18.56,-15.59 -28.31,-36.44 -28.31,-60.67l0 -413.42c0,-52.5 32.85,-97.05 83.02,-112.58 243.92,-75.56 436.48,-268.11 512.01,-512.05 15.53,-50.17 60.06,-83.01 112.56,-83.01l413.45 0c24.24,0 45.09,9.74 60.65,28.29 15.55,18.56 21.51,40.82 17.28,64.67z"/>
  <path class="fil0" d="M1613.87 1.33c562.63,99.66 1006.35,543.38 1106.01,1106.03 4.23,23.85 -1.73,46.07 -17.28,64.63 -15.56,18.59 -36.41,28.33 -60.65,28.33l-413.42 0c-52.53,0 -97.04,-32.85 -112.59,-83.01 -75.55,-243.95 -268.11,-436.46 -512.01,-512.02 -50.17,-15.53 -83.02,-60.08 -83.02,-112.61l0 -413.42c0,-24.24 9.75,-45.09 28.31,-60.68 18.56,-15.52 40.8,-21.48 64.65,-17.25z"/>
 </g>
</svg>
